<?xml version="1.0" standalone="no"?>
<!DOCTYPE svg PUBLIC "-//W3C//DTD SVG 1.1//EN"
"http://www.w3.org/Graphics/SVG/1.1/DTD/svg11.dtd">

<svg width="376" height="356" view_box="0 0 376 356"
xmlns="http://www.w3.org/2000/svg"
xmlns:link="http://www.w3.org/1999/xlink">\n\n<desc>Généré par Mocodo 2.3.7 le Sat, 29 Aug 2020 07:27:54</desc>

<rect id="frame" x="0" y="0" width="376" height="356" fill="#f7f7f7" stroke="none" stroke-width="0"/>

<!-- Association CONTIENT -->
<line x1="206" y1="305" x2="73" y2="305" stroke="#de77ae" stroke-width="2"/>
<text x="140" y="322.0" fill="#4d9221" font-family="Verdana" font-size="12">1,1</text>
<line x1="73" y1="187" x2="73" y2="305" stroke="#de77ae" stroke-width="2"/>
<text x="78.0" y="255" fill="#4d9221" font-family="Verdana" font-size="12">0,N</text>
<g id="association-CONTIENT">
	<path d="M 98 280 a 14 14 90 0 1 14 14 V 305 h -78 V 294 a 14 14 90 0 1 14 -14" fill="#f1b6da" stroke="#f1b6da" stroke-width="0"/>
	<path d="M 112 305.0 v 11 a 14 14 90 0 1 -14 14 H 48 a 14 14 90 0 1 -14 -14 V 305.0 H 78" fill="#fde0ef" stroke="#fde0ef" stroke-width="0"/>
	<rect x="34" y="280" width="78" height="50" fill="none" rx="14" stroke="#de77ae" stroke-width="2"/>
	<line x1="34" y1="305" x2="112" y2="305" stroke="#de77ae" stroke-width="1"/>
	<text x="41" y="297.7" fill="#000000" font-family="Verdana" font-size="12">CONTIENT</text>
</g>

<!-- Association AVOIR -->
<line x1="73" y1="187" x2="73" y2="60" stroke="#de77ae" stroke-width="2"/>
<text x="78.0" y="128" fill="#4d9221" font-family="Verdana" font-size="12">1,1</text>
<line x1="206" y1="60" x2="73" y2="60" stroke="#de77ae" stroke-width="2"/>
<text x="132" y="77.0" fill="#4d9221" font-family="Verdana" font-size="12">0,N</text>
<g id="association-AVOIR">
	<path d="M 86 35 a 14 14 90 0 1 14 14 V 60 h -54 V 49 a 14 14 90 0 1 14 -14" fill="#f1b6da" stroke="#f1b6da" stroke-width="0"/>
	<path d="M 100 60.0 v 11 a 14 14 90 0 1 -14 14 H 60 a 14 14 90 0 1 -14 -14 V 60.0 H 54" fill="#fde0ef" stroke="#fde0ef" stroke-width="0"/>
	<rect x="46" y="35" width="54" height="50" fill="none" rx="14" stroke="#de77ae" stroke-width="2"/>
	<line x1="46" y1="60" x2="100" y2="60" stroke="#de77ae" stroke-width="1"/>
	<text x="53" y="52.7" fill="#000000" font-family="Verdana" font-size="12">AVOIR</text>
</g>

<!-- Association ENGLOBE -->
<line x1="321" y1="187" x2="206" y2="187" stroke="#de77ae" stroke-width="2"/>
<text x="248" y="204.0" fill="#4d9221" font-family="Verdana" font-size="12">1,N</text>
<line x1="206" y1="305" x2="206" y2="187" stroke="#de77ae" stroke-width="2"/>
<text x="211.0" y="255" fill="#4d9221" font-family="Verdana" font-size="12">1,1</text>
<g id="association-ENGLOBE">
	<path d="M 229 162 a 14 14 90 0 1 14 14 V 187 h -74 V 176 a 14 14 90 0 1 14 -14" fill="#f1b6da" stroke="#f1b6da" stroke-width="0"/>
	<path d="M 243 187.0 v 11 a 14 14 90 0 1 -14 14 H 183 a 14 14 90 0 1 -14 -14 V 187.0 H 74" fill="#fde0ef" stroke="#fde0ef" stroke-width="0"/>
	<rect x="169" y="162" width="74" height="50" fill="none" rx="14" stroke="#de77ae" stroke-width="2"/>
	<line x1="169" y1="187" x2="243" y2="187" stroke="#de77ae" stroke-width="1"/>
	<text x="176" y="179.7" fill="#000000" font-family="Verdana" font-size="12">ENGLOBE</text>
</g>

<!-- Entity UTILISATEUR -->
<g id="entity-UTILISATEUR">
	<g id="frame-UTILISATEUR">
		<rect x="159" y="9" width="94" height="25" fill="#b8e186" stroke="#b8e186" stroke-width="0"/>
		<rect x="159" y="34.0" width="94" height="77" fill="#e6f5d0" stroke="#e6f5d0" stroke-width="0"/>
		<rect x="159" y="9" width="94" height="102" fill="none" stroke="#7fbc41" stroke-width="2"/>
		<line x1="159" y1="34" x2="253" y2="34" stroke="#7fbc41" stroke-width="1"/>
	</g>
	<text x="164" y="26.7" fill="#000000" font-family="Verdana" font-size="12">UTILISATEUR</text>
	<text x="164" y="51.7" fill="#000000" font-family="Verdana" font-size="12">nom</text>
	<line x1="164" y1="54" x2="192" y2="54" stroke="#000000" stroke-width="1"/>
	<text x="164" y="68.8" fill="#000000" font-family="Verdana" font-size="12">prénom</text>
	<text x="164" y="85.8" fill="#000000" font-family="Verdana" font-size="12">email</text>
	<text x="164" y="102.8" fill="#000000" font-family="Verdana" font-size="12">mot de passe</text>
</g>

<!-- Entity CARNETDEVOYAGE -->
<g id="entity-CARNETDEVOYAGE">
	<g id="frame-CARNETDEVOYAGE">
		<rect x="9" y="136" width="128" height="25" fill="#b8e186" stroke="#b8e186" stroke-width="0"/>
		<rect x="9" y="161.0" width="128" height="77" fill="#e6f5d0" stroke="#e6f5d0" stroke-width="0"/>
		<rect x="9" y="136" width="128" height="102" fill="none" stroke="#7fbc41" stroke-width="2"/>
		<line x1="9" y1="161" x2="137" y2="161" stroke="#7fbc41" stroke-width="1"/>
	</g>
	<text x="14" y="153.7" fill="#000000" font-family="Verdana" font-size="12">CARNETDEVOYAGE</text>
	<text x="14" y="178.7" fill="#000000" font-family="Verdana" font-size="12">nom</text>
	<line x1="14" y1="181" x2="42" y2="181" stroke="#000000" stroke-width="1"/>
	<text x="14" y="195.8" fill="#000000" font-family="Verdana" font-size="12">destination</text>
	<text x="14" y="212.8" fill="#000000" font-family="Verdana" font-size="12">dateDepart</text>
	<text x="14" y="229.8" fill="#000000" font-family="Verdana" font-size="12">dateActivite</text>
</g>

<!-- Entity CATEGORIES -->
<g id="entity-CATEGORIES">
	<g id="frame-CATEGORIES">
		<rect x="275" y="162" width="92" height="25" fill="#b8e186" stroke="#b8e186" stroke-width="0"/>
		<rect x="275" y="187.0" width="92" height="25" fill="#e6f5d0" stroke="#e6f5d0" stroke-width="0"/>
		<rect x="275" y="162" width="92" height="50" fill="none" stroke="#7fbc41" stroke-width="2"/>
		<line x1="275" y1="187" x2="367" y2="187" stroke="#7fbc41" stroke-width="1"/>
	</g>
	<text x="280" y="179.7" fill="#000000" font-family="Verdana" font-size="12">CATEGORIES</text>
	<text x="280" y="204.8" fill="#000000" font-family="Verdana" font-size="12">nom</text>
	<line x1="280" y1="207" x2="308" y2="207" stroke="#000000" stroke-width="1"/>
</g>

<!-- Entity ACTIVITÉS -->
<g id="entity-ACTIVITÉS">
	<g id="frame-ACTIVITÉS">
		<rect x="166" y="263" width="80" height="25" fill="#b8e186" stroke="#b8e186" stroke-width="0"/>
		<rect x="166" y="288.0" width="80" height="59" fill="#e6f5d0" stroke="#e6f5d0" stroke-width="0"/>
		<rect x="166" y="263" width="80" height="84" fill="none" stroke="#7fbc41" stroke-width="2"/>
		<line x1="166" y1="288" x2="246" y2="288" stroke="#7fbc41" stroke-width="1"/>
	</g>
	<text x="172" y="280.7" fill="#000000" font-family="Verdana" font-size="12">ACTIVITÉS</text>
	<text x="171" y="305.8" fill="#000000" font-family="Verdana" font-size="12">nom</text>
	<line x1="171" y1="308" x2="199" y2="308" stroke="#000000" stroke-width="1"/>
	<text x="171" y="322.8" fill="#000000" font-family="Verdana" font-size="12">information</text>
	<text x="171" y="339.8" fill="#000000" font-family="Verdana" font-size="12">localisation</text>
</g>
</svg>